<mxfile host="app.diagrams.net" modified="2023-07-13T09:47:34.102Z" agent="Mozilla/5.0 (Macintosh; Intel Mac OS X 10_15_7) AppleWebKit/537.36 (KHTML, like Gecko) Chrome/114.0.0.0 Safari/537.36" etag="KRdycvREeRdxZHRAGgcn" version="21.3.8" type="github">
  <diagram id="rYdwiMb5jvszhZctyrXV" name="第 1 页">
    <mxGraphModel dx="1363" dy="860" grid="0" gridSize="10" guides="1" tooltips="1" connect="1" arrows="1" fold="1" page="1" pageScale="1" pageWidth="1200" pageHeight="1920" math="0" shadow="0">
      <root>
        <mxCell id="0" />
        <mxCell id="1" parent="0" />
        <mxCell id="03nautIme0JNub1uCO7q-31" value="" style="rounded=0;whiteSpace=wrap;html=1;horizontal=1;" parent="1" vertex="1">
          <mxGeometry x="674" y="816" width="411" height="262" as="geometry" />
        </mxCell>
        <mxCell id="6RyUIfgaUFoeRIO4xXDH-37" value="" style="rounded=0;whiteSpace=wrap;html=1;horizontal=1;" parent="1" vertex="1">
          <mxGeometry x="231.5" y="816" width="411" height="262" as="geometry" />
        </mxCell>
        <mxCell id="6RyUIfgaUFoeRIO4xXDH-11" value="" style="rounded=0;whiteSpace=wrap;html=1;" parent="1" vertex="1">
          <mxGeometry x="231.5" y="489" width="413" height="261" as="geometry" />
        </mxCell>
        <mxCell id="6RyUIfgaUFoeRIO4xXDH-1" value="&lt;p style=&quot;line-height: 150%;&quot;&gt;master0&lt;br&gt;(down)&lt;/p&gt;" style="ellipse;whiteSpace=wrap;html=1;aspect=fixed;fillColor=#a20025;fontColor=#ffffff;strokeColor=#6F0000;" parent="1" vertex="1">
          <mxGeometry x="262" y="529" width="80" height="80" as="geometry" />
        </mxCell>
        <mxCell id="6RyUIfgaUFoeRIO4xXDH-2" value="&lt;p style=&quot;line-height: 150%;&quot;&gt;slave0&lt;br&gt;(down)&lt;/p&gt;" style="ellipse;whiteSpace=wrap;html=1;aspect=fixed;fillColor=#a20025;fontColor=#ffffff;strokeColor=#6F0000;" parent="1" vertex="1">
          <mxGeometry x="262" y="652" width="80" height="80" as="geometry" />
        </mxCell>
        <mxCell id="6RyUIfgaUFoeRIO4xXDH-3" value="&lt;p style=&quot;line-height: 150%;&quot;&gt;master1&lt;br&gt;(down)&lt;/p&gt;" style="ellipse;whiteSpace=wrap;html=1;aspect=fixed;fillColor=#a20025;fontColor=#ffffff;strokeColor=#6F0000;" parent="1" vertex="1">
          <mxGeometry x="398" y="529" width="80" height="80" as="geometry" />
        </mxCell>
        <mxCell id="6RyUIfgaUFoeRIO4xXDH-4" value="&lt;p style=&quot;line-height: 150%;&quot;&gt;slave1&lt;br&gt;(down)&lt;/p&gt;" style="ellipse;whiteSpace=wrap;html=1;aspect=fixed;fillColor=#a20025;fontColor=#ffffff;strokeColor=#6F0000;" parent="1" vertex="1">
          <mxGeometry x="398" y="652" width="80" height="80" as="geometry" />
        </mxCell>
        <mxCell id="6RyUIfgaUFoeRIO4xXDH-5" value="&lt;p style=&quot;line-height: 150%;&quot;&gt;master2&lt;br&gt;(down)&lt;/p&gt;" style="ellipse;whiteSpace=wrap;html=1;aspect=fixed;fillColor=#a20025;fontColor=#ffffff;strokeColor=#6F0000;" parent="1" vertex="1">
          <mxGeometry x="527" y="529" width="80" height="80" as="geometry" />
        </mxCell>
        <mxCell id="6RyUIfgaUFoeRIO4xXDH-6" value="&lt;p style=&quot;line-height: 150%;&quot;&gt;slave2&lt;br&gt;(down)&lt;/p&gt;" style="ellipse;whiteSpace=wrap;html=1;aspect=fixed;fillColor=#a20025;fontColor=#ffffff;strokeColor=#6F0000;" parent="1" vertex="1">
          <mxGeometry x="527" y="652" width="80" height="80" as="geometry" />
        </mxCell>
        <mxCell id="6RyUIfgaUFoeRIO4xXDH-59" style="edgeStyle=orthogonalEdgeStyle;rounded=0;orthogonalLoop=1;jettySize=auto;html=1;exitX=0;exitY=0.5;exitDx=0;exitDy=0;dashed=1;entryX=0.5;entryY=1;entryDx=0;entryDy=0;" parent="1" source="6RyUIfgaUFoeRIO4xXDH-7" target="6RyUIfgaUFoeRIO4xXDH-41" edge="1">
          <mxGeometry relative="1" as="geometry">
            <mxPoint x="145" y="981" as="targetPoint" />
            <Array as="points">
              <mxPoint x="44" y="280" />
              <mxPoint x="44" y="1114" />
              <mxPoint x="438" y="1114" />
            </Array>
          </mxGeometry>
        </mxCell>
        <mxCell id="6RyUIfgaUFoeRIO4xXDH-20" value="&lt;p style=&quot;line-height: 150%;&quot;&gt;1. 健康检查，发现集群所有节点宕机&lt;/p&gt;" style="text;html=1;strokeColor=none;fillColor=none;align=center;verticalAlign=middle;whiteSpace=wrap;rounded=0;" parent="1" vertex="1">
          <mxGeometry x="439" y="342" width="121" height="30" as="geometry" />
        </mxCell>
        <mxCell id="6RyUIfgaUFoeRIO4xXDH-23" value="" style="rounded=0;whiteSpace=wrap;html=1;" parent="1" vertex="1">
          <mxGeometry x="674" y="489" width="406" height="262" as="geometry" />
        </mxCell>
        <mxCell id="6RyUIfgaUFoeRIO4xXDH-28" value="master2" style="ellipse;whiteSpace=wrap;html=1;aspect=fixed;fillColor=#008a00;fontColor=#ffffff;strokeColor=#005700;" parent="1" vertex="1">
          <mxGeometry x="976" y="529" width="80" height="80" as="geometry" />
        </mxCell>
        <mxCell id="6RyUIfgaUFoeRIO4xXDH-38" value="master0" style="ellipse;whiteSpace=wrap;html=1;aspect=fixed;fillColor=#008a00;fontColor=#ffffff;strokeColor=#005700;" parent="1" vertex="1">
          <mxGeometry x="261.5" y="845" width="80" height="80" as="geometry" />
        </mxCell>
        <mxCell id="03nautIme0JNub1uCO7q-24" style="edgeStyle=orthogonalEdgeStyle;rounded=0;orthogonalLoop=1;jettySize=auto;html=1;exitX=0.5;exitY=0;exitDx=0;exitDy=0;entryX=0.5;entryY=1;entryDx=0;entryDy=0;dashed=1;" parent="1" source="6RyUIfgaUFoeRIO4xXDH-39" target="6RyUIfgaUFoeRIO4xXDH-38" edge="1">
          <mxGeometry relative="1" as="geometry" />
        </mxCell>
        <mxCell id="6RyUIfgaUFoeRIO4xXDH-39" value="slave0" style="ellipse;whiteSpace=wrap;html=1;aspect=fixed;fillColor=#d5e8d4;strokeColor=#82b366;" parent="1" vertex="1">
          <mxGeometry x="261.5" y="968" width="80" height="80" as="geometry" />
        </mxCell>
        <mxCell id="6RyUIfgaUFoeRIO4xXDH-40" value="master1" style="ellipse;whiteSpace=wrap;html=1;aspect=fixed;fillColor=#008a00;fontColor=#ffffff;strokeColor=#005700;" parent="1" vertex="1">
          <mxGeometry x="397.5" y="845" width="80" height="80" as="geometry" />
        </mxCell>
        <mxCell id="03nautIme0JNub1uCO7q-26" style="edgeStyle=orthogonalEdgeStyle;rounded=0;orthogonalLoop=1;jettySize=auto;html=1;exitX=0.5;exitY=0;exitDx=0;exitDy=0;entryX=0.5;entryY=1;entryDx=0;entryDy=0;dashed=1;" parent="1" source="6RyUIfgaUFoeRIO4xXDH-41" target="6RyUIfgaUFoeRIO4xXDH-40" edge="1">
          <mxGeometry relative="1" as="geometry" />
        </mxCell>
        <mxCell id="6RyUIfgaUFoeRIO4xXDH-41" value="slave1" style="ellipse;whiteSpace=wrap;html=1;aspect=fixed;fillColor=#d5e8d4;strokeColor=#82b366;" parent="1" vertex="1">
          <mxGeometry x="397.5" y="968" width="80" height="80" as="geometry" />
        </mxCell>
        <mxCell id="6RyUIfgaUFoeRIO4xXDH-42" value="master2" style="ellipse;whiteSpace=wrap;html=1;aspect=fixed;fillColor=#008a00;fontColor=#ffffff;strokeColor=#005700;" parent="1" vertex="1">
          <mxGeometry x="526.5" y="845" width="80" height="80" as="geometry" />
        </mxCell>
        <mxCell id="03nautIme0JNub1uCO7q-27" value="" style="edgeStyle=orthogonalEdgeStyle;rounded=0;orthogonalLoop=1;jettySize=auto;html=1;dashed=1;" parent="1" source="6RyUIfgaUFoeRIO4xXDH-43" target="6RyUIfgaUFoeRIO4xXDH-42" edge="1">
          <mxGeometry relative="1" as="geometry" />
        </mxCell>
        <mxCell id="6RyUIfgaUFoeRIO4xXDH-43" value="slave2" style="ellipse;whiteSpace=wrap;html=1;aspect=fixed;fillColor=#d5e8d4;strokeColor=#82b366;" parent="1" vertex="1">
          <mxGeometry x="526.5" y="968" width="80" height="80" as="geometry" />
        </mxCell>
        <mxCell id="6RyUIfgaUFoeRIO4xXDH-51" value="4 从节点执行cluster replicate，复制主节点" style="text;html=1;strokeColor=none;fillColor=none;align=center;verticalAlign=middle;whiteSpace=wrap;rounded=0;" parent="1" vertex="1">
          <mxGeometry x="265" y="1112" width="236" height="30" as="geometry" />
        </mxCell>
        <mxCell id="6RyUIfgaUFoeRIO4xXDH-54" value="主从复制" style="text;html=1;strokeColor=none;fillColor=none;align=center;verticalAlign=middle;whiteSpace=wrap;rounded=0;" parent="1" vertex="1">
          <mxGeometry x="300.5" y="939" width="75" height="16" as="geometry" />
        </mxCell>
        <mxCell id="6RyUIfgaUFoeRIO4xXDH-55" value="主从复制" style="text;html=1;strokeColor=none;fillColor=none;align=center;verticalAlign=middle;whiteSpace=wrap;rounded=0;" parent="1" vertex="1">
          <mxGeometry x="435.5" y="942" width="75" height="16" as="geometry" />
        </mxCell>
        <mxCell id="6RyUIfgaUFoeRIO4xXDH-62" value="&lt;p style=&quot;line-height: 150%;&quot;&gt;5 执行cluster meet，&lt;br&gt;节点握手后，集群状态恢复&lt;/p&gt;" style="text;html=1;strokeColor=none;fillColor=none;align=center;verticalAlign=middle;whiteSpace=wrap;rounded=0;" parent="1" vertex="1">
          <mxGeometry x="935" y="1115" width="213" height="30" as="geometry" />
        </mxCell>
        <mxCell id="6RyUIfgaUFoeRIO4xXDH-64" style="edgeStyle=orthogonalEdgeStyle;rounded=0;orthogonalLoop=1;jettySize=auto;html=1;exitX=0;exitY=0.5;exitDx=0;exitDy=0;dashed=1;entryX=0.5;entryY=1;entryDx=0;entryDy=0;" parent="1" source="6RyUIfgaUFoeRIO4xXDH-7" target="6RyUIfgaUFoeRIO4xXDH-1" edge="1">
          <mxGeometry relative="1" as="geometry">
            <mxPoint x="302" y="617" as="targetPoint" />
            <Array as="points">
              <mxPoint x="147" y="279" />
              <mxPoint x="147" y="643" />
              <mxPoint x="302" y="643" />
            </Array>
          </mxGeometry>
        </mxCell>
        <mxCell id="6RyUIfgaUFoeRIO4xXDH-66" style="edgeStyle=orthogonalEdgeStyle;rounded=0;orthogonalLoop=1;jettySize=auto;html=1;exitX=0;exitY=0.5;exitDx=0;exitDy=0;dashed=1;" parent="1" source="6RyUIfgaUFoeRIO4xXDH-7" target="6RyUIfgaUFoeRIO4xXDH-11" edge="1">
          <mxGeometry relative="1" as="geometry" />
        </mxCell>
        <mxCell id="6RyUIfgaUFoeRIO4xXDH-70" style="edgeStyle=orthogonalEdgeStyle;rounded=0;orthogonalLoop=1;jettySize=auto;html=1;exitX=0;exitY=0.5;exitDx=0;exitDy=0;dashed=1;" parent="1" source="6RyUIfgaUFoeRIO4xXDH-7" target="6RyUIfgaUFoeRIO4xXDH-3" edge="1">
          <mxGeometry relative="1" as="geometry">
            <mxPoint x="147" y="627" as="targetPoint" />
            <Array as="points">
              <mxPoint x="516" y="281" />
              <mxPoint x="147" y="281" />
              <mxPoint x="147" y="643" />
              <mxPoint x="438" y="643" />
            </Array>
          </mxGeometry>
        </mxCell>
        <mxCell id="6RyUIfgaUFoeRIO4xXDH-73" style="edgeStyle=orthogonalEdgeStyle;rounded=0;orthogonalLoop=1;jettySize=auto;html=1;exitX=1;exitY=0.5;exitDx=0;exitDy=0;dashed=1;entryX=0.5;entryY=1;entryDx=0;entryDy=0;" parent="1" source="6RyUIfgaUFoeRIO4xXDH-7" target="03nautIme0JNub1uCO7q-12" edge="1">
          <mxGeometry relative="1" as="geometry">
            <Array as="points">
              <mxPoint x="738" y="281" />
              <mxPoint x="1162" y="281" />
              <mxPoint x="1162" y="776" />
              <mxPoint x="747" y="776" />
            </Array>
            <mxPoint x="1118" y="763" as="targetPoint" />
          </mxGeometry>
        </mxCell>
        <mxCell id="6RyUIfgaUFoeRIO4xXDH-77" style="edgeStyle=orthogonalEdgeStyle;rounded=0;orthogonalLoop=1;jettySize=auto;html=1;exitX=1;exitY=0.5;exitDx=0;exitDy=0;dashed=1;entryX=0.5;entryY=1;entryDx=0;entryDy=0;" parent="1" source="6RyUIfgaUFoeRIO4xXDH-7" target="03nautIme0JNub1uCO7q-13" edge="1">
          <mxGeometry relative="1" as="geometry">
            <mxPoint x="887" y="529" as="targetPoint" />
            <Array as="points">
              <mxPoint x="1162" y="279" />
              <mxPoint x="1162" y="775" />
              <mxPoint x="887" y="775" />
            </Array>
          </mxGeometry>
        </mxCell>
        <mxCell id="03nautIme0JNub1uCO7q-1" style="edgeStyle=orthogonalEdgeStyle;rounded=0;orthogonalLoop=1;jettySize=auto;html=1;exitX=0;exitY=0.5;exitDx=0;exitDy=0;dashed=1;" parent="1" source="6RyUIfgaUFoeRIO4xXDH-7" target="6RyUIfgaUFoeRIO4xXDH-5" edge="1">
          <mxGeometry relative="1" as="geometry">
            <mxPoint x="166" y="613" as="targetPoint" />
            <Array as="points">
              <mxPoint x="146" y="279" />
              <mxPoint x="146" y="642" />
              <mxPoint x="567" y="642" />
            </Array>
          </mxGeometry>
        </mxCell>
        <mxCell id="03nautIme0JNub1uCO7q-18" style="edgeStyle=orthogonalEdgeStyle;rounded=0;orthogonalLoop=1;jettySize=auto;html=1;exitX=1;exitY=0.5;exitDx=0;exitDy=0;dashed=1;entryX=0.5;entryY=1;entryDx=0;entryDy=0;" parent="1" source="6RyUIfgaUFoeRIO4xXDH-7" target="03nautIme0JNub1uCO7q-14" edge="1">
          <mxGeometry relative="1" as="geometry">
            <mxPoint x="1115" y="761" as="targetPoint" />
            <Array as="points">
              <mxPoint x="1160" y="279" />
              <mxPoint x="1160" y="775" />
              <mxPoint x="1016" y="775" />
            </Array>
          </mxGeometry>
        </mxCell>
        <mxCell id="03nautIme0JNub1uCO7q-50" style="edgeStyle=orthogonalEdgeStyle;rounded=0;orthogonalLoop=1;jettySize=auto;html=1;exitX=0;exitY=0.5;exitDx=0;exitDy=0;dashed=1;entryX=0.5;entryY=1;entryDx=0;entryDy=0;" parent="1" source="6RyUIfgaUFoeRIO4xXDH-7" target="6RyUIfgaUFoeRIO4xXDH-39" edge="1">
          <mxGeometry relative="1" as="geometry">
            <mxPoint x="58.18181818181802" y="1199.9090909090905" as="targetPoint" />
            <Array as="points">
              <mxPoint x="45" y="279" />
              <mxPoint x="45" y="1114" />
              <mxPoint x="302" y="1114" />
            </Array>
          </mxGeometry>
        </mxCell>
        <mxCell id="03nautIme0JNub1uCO7q-51" style="edgeStyle=orthogonalEdgeStyle;rounded=0;orthogonalLoop=1;jettySize=auto;html=1;exitX=0;exitY=0.5;exitDx=0;exitDy=0;dashed=1;entryX=0.5;entryY=1;entryDx=0;entryDy=0;" parent="1" source="6RyUIfgaUFoeRIO4xXDH-7" target="6RyUIfgaUFoeRIO4xXDH-43" edge="1">
          <mxGeometry relative="1" as="geometry">
            <mxPoint x="69.09090909090901" y="1212.6363636363635" as="targetPoint" />
            <Array as="points">
              <mxPoint x="42" y="279" />
              <mxPoint x="42" y="1113" />
              <mxPoint x="567" y="1113" />
            </Array>
          </mxGeometry>
        </mxCell>
        <mxCell id="03nautIme0JNub1uCO7q-55" style="edgeStyle=orthogonalEdgeStyle;rounded=0;orthogonalLoop=1;jettySize=auto;html=1;exitX=1;exitY=0.5;exitDx=0;exitDy=0;dashed=1;entryX=0.5;entryY=1;entryDx=0;entryDy=0;" parent="1" source="6RyUIfgaUFoeRIO4xXDH-7" target="03nautIme0JNub1uCO7q-37" edge="1">
          <mxGeometry relative="1" as="geometry">
            <mxPoint x="874" y="1290" as="targetPoint" />
            <Array as="points">
              <mxPoint x="1162" y="279" />
              <mxPoint x="1162" y="1111" />
              <mxPoint x="880" y="1111" />
            </Array>
          </mxGeometry>
        </mxCell>
        <mxCell id="6RyUIfgaUFoeRIO4xXDH-7" value="redis-operator" style="rounded=1;whiteSpace=wrap;html=1;fillColor=#b1ddf0;strokeColor=#10739e;" parent="1" vertex="1">
          <mxGeometry x="516" y="243" width="221.5" height="72" as="geometry" />
        </mxCell>
        <mxCell id="6RyUIfgaUFoeRIO4xXDH-71" value="2 拉起宕机的主节点，分配slot" style="text;html=1;strokeColor=none;fillColor=none;align=center;verticalAlign=middle;whiteSpace=wrap;rounded=0;" parent="1" vertex="1">
          <mxGeometry x="153" y="337" width="167" height="40" as="geometry" />
        </mxCell>
        <mxCell id="6RyUIfgaUFoeRIO4xXDH-81" value="redis集群" style="text;html=1;strokeColor=none;fillColor=none;align=center;verticalAlign=middle;whiteSpace=wrap;rounded=0;" parent="1" vertex="1">
          <mxGeometry x="411" y="497" width="60" height="30" as="geometry" />
        </mxCell>
        <mxCell id="6RyUIfgaUFoeRIO4xXDH-85" value="redis集群" style="text;html=1;strokeColor=none;fillColor=none;align=center;verticalAlign=middle;whiteSpace=wrap;rounded=0;" parent="1" vertex="1">
          <mxGeometry x="408" y="816" width="60" height="30" as="geometry" />
        </mxCell>
        <mxCell id="6RyUIfgaUFoeRIO4xXDH-89" value="redis集群" style="text;html=1;strokeColor=none;fillColor=none;align=center;verticalAlign=middle;whiteSpace=wrap;rounded=0;" parent="1" vertex="1">
          <mxGeometry x="857" y="499" width="60" height="30" as="geometry" />
        </mxCell>
        <mxCell id="03nautIme0JNub1uCO7q-4" value="master1" style="ellipse;whiteSpace=wrap;html=1;aspect=fixed;fillColor=#008a00;fontColor=#ffffff;strokeColor=#005700;" parent="1" vertex="1">
          <mxGeometry x="842" y="534" width="80" height="80" as="geometry" />
        </mxCell>
        <mxCell id="03nautIme0JNub1uCO7q-5" value="master0" style="ellipse;whiteSpace=wrap;html=1;aspect=fixed;fillColor=#008a00;fontColor=#ffffff;strokeColor=#005700;" parent="1" vertex="1">
          <mxGeometry x="707" y="534" width="80" height="80" as="geometry" />
        </mxCell>
        <mxCell id="03nautIme0JNub1uCO7q-8" value="slot:[0-5461]" style="text;html=1;strokeColor=none;fillColor=none;align=center;verticalAlign=middle;whiteSpace=wrap;rounded=0;" parent="1" vertex="1">
          <mxGeometry x="707" y="617" width="80" height="30" as="geometry" />
        </mxCell>
        <mxCell id="03nautIme0JNub1uCO7q-9" value="slot:[5462-10922]" style="text;html=1;strokeColor=none;fillColor=none;align=center;verticalAlign=middle;whiteSpace=wrap;rounded=0;" parent="1" vertex="1">
          <mxGeometry x="844" y="617" width="101" height="30" as="geometry" />
        </mxCell>
        <mxCell id="03nautIme0JNub1uCO7q-10" value="slot:[10923-16383]" style="text;html=1;strokeColor=none;fillColor=none;align=center;verticalAlign=middle;whiteSpace=wrap;rounded=0;" parent="1" vertex="1">
          <mxGeometry x="966" y="617" width="110" height="30" as="geometry" />
        </mxCell>
        <mxCell id="03nautIme0JNub1uCO7q-12" value="&lt;p style=&quot;line-height: 150%;&quot;&gt;slave0&lt;br&gt;(down)&lt;/p&gt;" style="ellipse;whiteSpace=wrap;html=1;aspect=fixed;fillColor=#a20025;fontColor=#ffffff;strokeColor=#6F0000;" parent="1" vertex="1">
          <mxGeometry x="707" y="652" width="80" height="80" as="geometry" />
        </mxCell>
        <mxCell id="03nautIme0JNub1uCO7q-13" value="&lt;p style=&quot;line-height: 150%;&quot;&gt;slave1&lt;br&gt;(down)&lt;/p&gt;" style="ellipse;whiteSpace=wrap;html=1;aspect=fixed;fillColor=#a20025;fontColor=#ffffff;strokeColor=#6F0000;" parent="1" vertex="1">
          <mxGeometry x="847" y="652" width="80" height="80" as="geometry" />
        </mxCell>
        <mxCell id="03nautIme0JNub1uCO7q-14" value="&lt;p style=&quot;line-height: 150%;&quot;&gt;slave2&lt;br&gt;(down)&lt;/p&gt;" style="ellipse;whiteSpace=wrap;html=1;aspect=fixed;fillColor=#a20025;fontColor=#ffffff;strokeColor=#6F0000;" parent="1" vertex="1">
          <mxGeometry x="976" y="650" width="80" height="80" as="geometry" />
        </mxCell>
        <mxCell id="03nautIme0JNub1uCO7q-19" value="3 拉起宕机的从节点" style="text;html=1;strokeColor=none;fillColor=none;align=center;verticalAlign=middle;whiteSpace=wrap;rounded=0;" parent="1" vertex="1">
          <mxGeometry x="1031" y="342" width="130" height="30" as="geometry" />
        </mxCell>
        <mxCell id="03nautIme0JNub1uCO7q-29" value="主从复制" style="text;html=1;strokeColor=none;fillColor=none;align=center;verticalAlign=middle;whiteSpace=wrap;rounded=0;" parent="1" vertex="1">
          <mxGeometry x="570.5" y="939" width="75" height="16" as="geometry" />
        </mxCell>
        <mxCell id="03nautIme0JNub1uCO7q-32" value="master0" style="ellipse;whiteSpace=wrap;html=1;aspect=fixed;fillColor=#008a00;fontColor=#ffffff;strokeColor=#005700;" parent="1" vertex="1">
          <mxGeometry x="704" y="845" width="80" height="80" as="geometry" />
        </mxCell>
        <mxCell id="03nautIme0JNub1uCO7q-34" value="slave0" style="ellipse;whiteSpace=wrap;html=1;aspect=fixed;fillColor=#d5e8d4;strokeColor=#82b366;" parent="1" vertex="1">
          <mxGeometry x="704" y="968" width="80" height="80" as="geometry" />
        </mxCell>
        <mxCell id="03nautIme0JNub1uCO7q-35" value="master1" style="ellipse;whiteSpace=wrap;html=1;aspect=fixed;fillColor=#008a00;fontColor=#ffffff;strokeColor=#005700;" parent="1" vertex="1">
          <mxGeometry x="840" y="845" width="80" height="80" as="geometry" />
        </mxCell>
        <mxCell id="03nautIme0JNub1uCO7q-36" style="edgeStyle=orthogonalEdgeStyle;rounded=0;orthogonalLoop=1;jettySize=auto;html=1;exitX=0.5;exitY=0;exitDx=0;exitDy=0;entryX=0.5;entryY=1;entryDx=0;entryDy=0;dashed=1;startArrow=classic;startFill=1;" parent="1" source="03nautIme0JNub1uCO7q-37" target="03nautIme0JNub1uCO7q-35" edge="1">
          <mxGeometry relative="1" as="geometry" />
        </mxCell>
        <mxCell id="03nautIme0JNub1uCO7q-72" value="meet" style="edgeLabel;html=1;align=center;verticalAlign=middle;resizable=0;points=[];" parent="03nautIme0JNub1uCO7q-36" vertex="1" connectable="0">
          <mxGeometry x="-0.3023" y="3" relative="1" as="geometry">
            <mxPoint as="offset" />
          </mxGeometry>
        </mxCell>
        <mxCell id="03nautIme0JNub1uCO7q-58" value="meet" style="edgeStyle=orthogonalEdgeStyle;rounded=0;orthogonalLoop=1;jettySize=auto;html=1;exitX=1;exitY=0.5;exitDx=0;exitDy=0;entryX=0;entryY=0.5;entryDx=0;entryDy=0;dashed=1;startArrow=classic;startFill=1;" parent="1" source="03nautIme0JNub1uCO7q-37" target="03nautIme0JNub1uCO7q-40" edge="1">
          <mxGeometry relative="1" as="geometry" />
        </mxCell>
        <mxCell id="03nautIme0JNub1uCO7q-67" style="edgeStyle=orthogonalEdgeStyle;rounded=0;orthogonalLoop=1;jettySize=auto;html=1;exitX=0;exitY=0.5;exitDx=0;exitDy=0;entryX=1;entryY=0.5;entryDx=0;entryDy=0;dashed=1;startArrow=classic;startFill=1;" parent="1" source="03nautIme0JNub1uCO7q-37" target="03nautIme0JNub1uCO7q-34" edge="1">
          <mxGeometry relative="1" as="geometry" />
        </mxCell>
        <mxCell id="03nautIme0JNub1uCO7q-74" value="meet" style="edgeLabel;html=1;align=center;verticalAlign=middle;resizable=0;points=[];" parent="03nautIme0JNub1uCO7q-67" vertex="1" connectable="0">
          <mxGeometry x="-0.006" relative="1" as="geometry">
            <mxPoint x="1" as="offset" />
          </mxGeometry>
        </mxCell>
        <mxCell id="03nautIme0JNub1uCO7q-68" style="edgeStyle=orthogonalEdgeStyle;rounded=0;orthogonalLoop=1;jettySize=auto;html=1;exitX=1;exitY=0;exitDx=0;exitDy=0;entryX=0;entryY=0.5;entryDx=0;entryDy=0;dashed=1;startArrow=classic;startFill=1;" parent="1" source="03nautIme0JNub1uCO7q-37" target="03nautIme0JNub1uCO7q-38" edge="1">
          <mxGeometry relative="1" as="geometry" />
        </mxCell>
        <mxCell id="03nautIme0JNub1uCO7q-73" value="meet" style="edgeLabel;html=1;align=center;verticalAlign=middle;resizable=0;points=[];" parent="03nautIme0JNub1uCO7q-68" vertex="1" connectable="0">
          <mxGeometry x="0.0668" y="-3" relative="1" as="geometry">
            <mxPoint as="offset" />
          </mxGeometry>
        </mxCell>
        <mxCell id="03nautIme0JNub1uCO7q-69" style="edgeStyle=orthogonalEdgeStyle;rounded=0;orthogonalLoop=1;jettySize=auto;html=1;exitX=0;exitY=0;exitDx=0;exitDy=0;entryX=1;entryY=0.5;entryDx=0;entryDy=0;dashed=1;startArrow=classic;startFill=1;" parent="1" source="03nautIme0JNub1uCO7q-37" target="03nautIme0JNub1uCO7q-32" edge="1">
          <mxGeometry relative="1" as="geometry" />
        </mxCell>
        <mxCell id="03nautIme0JNub1uCO7q-71" value="meet" style="edgeLabel;html=1;align=center;verticalAlign=middle;resizable=0;points=[];" parent="03nautIme0JNub1uCO7q-69" vertex="1" connectable="0">
          <mxGeometry x="0.0229" y="-2" relative="1" as="geometry">
            <mxPoint as="offset" />
          </mxGeometry>
        </mxCell>
        <mxCell id="03nautIme0JNub1uCO7q-37" value="slave1" style="ellipse;whiteSpace=wrap;html=1;aspect=fixed;fillColor=#d5e8d4;strokeColor=#82b366;" parent="1" vertex="1">
          <mxGeometry x="840" y="968" width="80" height="80" as="geometry" />
        </mxCell>
        <mxCell id="03nautIme0JNub1uCO7q-38" value="master2" style="ellipse;whiteSpace=wrap;html=1;aspect=fixed;fillColor=#008a00;fontColor=#ffffff;strokeColor=#005700;" parent="1" vertex="1">
          <mxGeometry x="969" y="845" width="80" height="80" as="geometry" />
        </mxCell>
        <mxCell id="03nautIme0JNub1uCO7q-40" value="slave2" style="ellipse;whiteSpace=wrap;html=1;aspect=fixed;fillColor=#d5e8d4;strokeColor=#82b366;" parent="1" vertex="1">
          <mxGeometry x="969" y="968" width="80" height="80" as="geometry" />
        </mxCell>
        <mxCell id="03nautIme0JNub1uCO7q-43" value="redis集群" style="text;html=1;strokeColor=none;fillColor=none;align=center;verticalAlign=middle;whiteSpace=wrap;rounded=0;" parent="1" vertex="1">
          <mxGeometry x="850" y="816" width="60" height="30" as="geometry" />
        </mxCell>
        <mxCell id="03nautIme0JNub1uCO7q-70" style="edgeStyle=orthogonalEdgeStyle;rounded=0;orthogonalLoop=1;jettySize=auto;html=1;exitX=0.5;exitY=1;exitDx=0;exitDy=0;dashed=1;" parent="1" source="6RyUIfgaUFoeRIO4xXDH-62" target="6RyUIfgaUFoeRIO4xXDH-62" edge="1">
          <mxGeometry relative="1" as="geometry" />
        </mxCell>
        <mxCell id="i9_PDDq2ceKXdRkYbvvK-1" value="" style="rounded=0;whiteSpace=wrap;html=1;horizontal=1;" vertex="1" parent="1">
          <mxGeometry x="674" y="1629" width="411" height="262" as="geometry" />
        </mxCell>
        <mxCell id="i9_PDDq2ceKXdRkYbvvK-2" value="" style="rounded=0;whiteSpace=wrap;html=1;horizontal=1;" vertex="1" parent="1">
          <mxGeometry x="453.40999999999997" y="2033" width="411" height="262" as="geometry" />
        </mxCell>
        <mxCell id="i9_PDDq2ceKXdRkYbvvK-3" value="" style="rounded=0;whiteSpace=wrap;html=1;" vertex="1" parent="1">
          <mxGeometry x="237.41" y="1626" width="413" height="261" as="geometry" />
        </mxCell>
        <mxCell id="i9_PDDq2ceKXdRkYbvvK-4" value="&lt;p style=&quot;line-height: 150%;&quot;&gt;master0&lt;br&gt;(down)&lt;/p&gt;" style="ellipse;whiteSpace=wrap;html=1;aspect=fixed;fillColor=#a20025;fontColor=#ffffff;strokeColor=#6F0000;" vertex="1" parent="1">
          <mxGeometry x="267.91" y="1666" width="80" height="80" as="geometry" />
        </mxCell>
        <mxCell id="i9_PDDq2ceKXdRkYbvvK-5" value="&lt;p style=&quot;line-height: 150%;&quot;&gt;slave0&lt;br&gt;(down)&lt;/p&gt;" style="ellipse;whiteSpace=wrap;html=1;aspect=fixed;fillColor=#a20025;fontColor=#ffffff;strokeColor=#6F0000;" vertex="1" parent="1">
          <mxGeometry x="267.91" y="1789" width="80" height="80" as="geometry" />
        </mxCell>
        <mxCell id="i9_PDDq2ceKXdRkYbvvK-6" value="&lt;p style=&quot;line-height: 150%;&quot;&gt;master1&lt;br&gt;(down)&lt;/p&gt;" style="ellipse;whiteSpace=wrap;html=1;aspect=fixed;fillColor=#a20025;fontColor=#ffffff;strokeColor=#6F0000;" vertex="1" parent="1">
          <mxGeometry x="403.91" y="1666" width="80" height="80" as="geometry" />
        </mxCell>
        <mxCell id="i9_PDDq2ceKXdRkYbvvK-7" value="&lt;p style=&quot;line-height: 150%;&quot;&gt;slave1&lt;br&gt;(down)&lt;/p&gt;" style="ellipse;whiteSpace=wrap;html=1;aspect=fixed;fillColor=#a20025;fontColor=#ffffff;strokeColor=#6F0000;" vertex="1" parent="1">
          <mxGeometry x="403.91" y="1789" width="80" height="80" as="geometry" />
        </mxCell>
        <mxCell id="i9_PDDq2ceKXdRkYbvvK-8" value="&lt;p style=&quot;line-height: 150%;&quot;&gt;master2&lt;br&gt;(down)&lt;/p&gt;" style="ellipse;whiteSpace=wrap;html=1;aspect=fixed;fillColor=#a20025;fontColor=#ffffff;strokeColor=#6F0000;" vertex="1" parent="1">
          <mxGeometry x="532.91" y="1666" width="80" height="80" as="geometry" />
        </mxCell>
        <mxCell id="i9_PDDq2ceKXdRkYbvvK-9" value="&lt;p style=&quot;line-height: 150%;&quot;&gt;slave2&lt;br&gt;(down)&lt;/p&gt;" style="ellipse;whiteSpace=wrap;html=1;aspect=fixed;fillColor=#a20025;fontColor=#ffffff;strokeColor=#6F0000;" vertex="1" parent="1">
          <mxGeometry x="532.91" y="1789" width="80" height="80" as="geometry" />
        </mxCell>
        <mxCell id="i9_PDDq2ceKXdRkYbvvK-10" style="edgeStyle=orthogonalEdgeStyle;rounded=0;orthogonalLoop=1;jettySize=auto;html=1;exitX=0;exitY=0.5;exitDx=0;exitDy=0;dashed=1;entryX=0.582;entryY=0.994;entryDx=0;entryDy=0;entryPerimeter=0;" edge="1" parent="1">
          <mxGeometry relative="1" as="geometry">
            <mxPoint x="665.97" y="2259.52" as="targetPoint" />
            <Array as="points">
              <mxPoint x="522" y="1412" />
              <mxPoint x="50" y="1412" />
              <mxPoint x="50" y="2312" />
              <mxPoint x="665" y="2312" />
              <mxPoint x="665" y="2259" />
            </Array>
            <mxPoint x="521.9099999999999" y="1411.0000000000002" as="sourcePoint" />
          </mxGeometry>
        </mxCell>
        <mxCell id="i9_PDDq2ceKXdRkYbvvK-11" value="&lt;p style=&quot;line-height: 150%;&quot;&gt;1. 健康检查，发现集群所有节点宕机&lt;/p&gt;" style="text;html=1;strokeColor=none;fillColor=none;align=center;verticalAlign=middle;whiteSpace=wrap;rounded=0;" vertex="1" parent="1">
          <mxGeometry x="444.91" y="1479" width="121" height="30" as="geometry" />
        </mxCell>
        <mxCell id="i9_PDDq2ceKXdRkYbvvK-14" value="master0" style="ellipse;whiteSpace=wrap;html=1;aspect=fixed;fillColor=#008a00;fontColor=#ffffff;strokeColor=#005700;" vertex="1" parent="1">
          <mxGeometry x="483.41" y="2062" width="80" height="80" as="geometry" />
        </mxCell>
        <mxCell id="i9_PDDq2ceKXdRkYbvvK-15" style="edgeStyle=orthogonalEdgeStyle;rounded=0;orthogonalLoop=1;jettySize=auto;html=1;exitX=0.5;exitY=0;exitDx=0;exitDy=0;entryX=0.5;entryY=1;entryDx=0;entryDy=0;dashed=1;" edge="1" parent="1" source="i9_PDDq2ceKXdRkYbvvK-16" target="i9_PDDq2ceKXdRkYbvvK-14">
          <mxGeometry relative="1" as="geometry" />
        </mxCell>
        <mxCell id="i9_PDDq2ceKXdRkYbvvK-16" value="slave0" style="ellipse;whiteSpace=wrap;html=1;aspect=fixed;fillColor=#d5e8d4;strokeColor=#82b366;" vertex="1" parent="1">
          <mxGeometry x="483.41" y="2185" width="80" height="80" as="geometry" />
        </mxCell>
        <mxCell id="i9_PDDq2ceKXdRkYbvvK-17" value="master1" style="ellipse;whiteSpace=wrap;html=1;aspect=fixed;fillColor=#008a00;fontColor=#ffffff;strokeColor=#005700;" vertex="1" parent="1">
          <mxGeometry x="619.4100000000001" y="2062" width="80" height="80" as="geometry" />
        </mxCell>
        <mxCell id="i9_PDDq2ceKXdRkYbvvK-18" style="edgeStyle=orthogonalEdgeStyle;rounded=0;orthogonalLoop=1;jettySize=auto;html=1;exitX=0.5;exitY=0;exitDx=0;exitDy=0;entryX=0.5;entryY=1;entryDx=0;entryDy=0;dashed=1;" edge="1" parent="1" source="i9_PDDq2ceKXdRkYbvvK-19" target="i9_PDDq2ceKXdRkYbvvK-17">
          <mxGeometry relative="1" as="geometry" />
        </mxCell>
        <mxCell id="i9_PDDq2ceKXdRkYbvvK-19" value="slave1" style="ellipse;whiteSpace=wrap;html=1;aspect=fixed;fillColor=#d5e8d4;strokeColor=#82b366;" vertex="1" parent="1">
          <mxGeometry x="619.4100000000001" y="2185" width="80" height="80" as="geometry" />
        </mxCell>
        <mxCell id="i9_PDDq2ceKXdRkYbvvK-20" value="master2" style="ellipse;whiteSpace=wrap;html=1;aspect=fixed;fillColor=#008a00;fontColor=#ffffff;strokeColor=#005700;" vertex="1" parent="1">
          <mxGeometry x="748.41" y="2062" width="80" height="80" as="geometry" />
        </mxCell>
        <mxCell id="i9_PDDq2ceKXdRkYbvvK-21" value="" style="edgeStyle=orthogonalEdgeStyle;rounded=0;orthogonalLoop=1;jettySize=auto;html=1;dashed=1;" edge="1" parent="1" source="i9_PDDq2ceKXdRkYbvvK-22" target="i9_PDDq2ceKXdRkYbvvK-20">
          <mxGeometry relative="1" as="geometry" />
        </mxCell>
        <mxCell id="i9_PDDq2ceKXdRkYbvvK-22" value="slave2" style="ellipse;whiteSpace=wrap;html=1;aspect=fixed;fillColor=#d5e8d4;strokeColor=#82b366;" vertex="1" parent="1">
          <mxGeometry x="748.41" y="2185" width="80" height="80" as="geometry" />
        </mxCell>
        <mxCell id="i9_PDDq2ceKXdRkYbvvK-23" value="4 集群状态恢复" style="text;html=1;strokeColor=none;fillColor=none;align=center;verticalAlign=middle;whiteSpace=wrap;rounded=0;" vertex="1" parent="1">
          <mxGeometry x="45" y="2284" width="236" height="30" as="geometry" />
        </mxCell>
        <mxCell id="i9_PDDq2ceKXdRkYbvvK-24" value="主从复制" style="text;html=1;strokeColor=none;fillColor=none;align=center;verticalAlign=middle;whiteSpace=wrap;rounded=0;" vertex="1" parent="1">
          <mxGeometry x="522.4100000000001" y="2156" width="75" height="16" as="geometry" />
        </mxCell>
        <mxCell id="i9_PDDq2ceKXdRkYbvvK-25" value="主从复制" style="text;html=1;strokeColor=none;fillColor=none;align=center;verticalAlign=middle;whiteSpace=wrap;rounded=0;" vertex="1" parent="1">
          <mxGeometry x="657.4100000000001" y="2159" width="75" height="16" as="geometry" />
        </mxCell>
        <mxCell id="i9_PDDq2ceKXdRkYbvvK-27" style="edgeStyle=orthogonalEdgeStyle;rounded=0;orthogonalLoop=1;jettySize=auto;html=1;exitX=0;exitY=0.5;exitDx=0;exitDy=0;dashed=1;entryX=0.5;entryY=1;entryDx=0;entryDy=0;" edge="1" parent="1">
          <mxGeometry relative="1" as="geometry">
            <mxPoint x="307.9100000000001" y="1742" as="targetPoint" />
            <Array as="points">
              <mxPoint x="152.91" y="1412" />
              <mxPoint x="152.91" y="1776" />
              <mxPoint x="307.91" y="1776" />
            </Array>
            <mxPoint x="521.9100000000001" y="1412" as="sourcePoint" />
          </mxGeometry>
        </mxCell>
        <mxCell id="i9_PDDq2ceKXdRkYbvvK-28" style="edgeStyle=orthogonalEdgeStyle;rounded=0;orthogonalLoop=1;jettySize=auto;html=1;exitX=0;exitY=0.5;exitDx=0;exitDy=0;dashed=1;" edge="1" parent="1">
          <mxGeometry relative="1" as="geometry">
            <mxPoint x="521.91" y="1411" as="sourcePoint" />
            <mxPoint x="443.88235294117646" y="1621" as="targetPoint" />
          </mxGeometry>
        </mxCell>
        <mxCell id="i9_PDDq2ceKXdRkYbvvK-29" style="edgeStyle=orthogonalEdgeStyle;rounded=0;orthogonalLoop=1;jettySize=auto;html=1;exitX=0;exitY=0.5;exitDx=0;exitDy=0;dashed=1;" edge="1" parent="1">
          <mxGeometry relative="1" as="geometry">
            <mxPoint x="443.9100000000001" y="1740" as="targetPoint" />
            <Array as="points">
              <mxPoint x="521.91" y="1412" />
              <mxPoint x="152.91" y="1412" />
              <mxPoint x="152.91" y="1774" />
              <mxPoint x="443.91" y="1774" />
            </Array>
            <mxPoint x="521.9100000000001" y="1410" as="sourcePoint" />
          </mxGeometry>
        </mxCell>
        <mxCell id="i9_PDDq2ceKXdRkYbvvK-32" style="edgeStyle=orthogonalEdgeStyle;rounded=0;orthogonalLoop=1;jettySize=auto;html=1;exitX=0;exitY=0.5;exitDx=0;exitDy=0;dashed=1;" edge="1" parent="1">
          <mxGeometry relative="1" as="geometry">
            <mxPoint x="572.9100000000001" y="1742" as="targetPoint" />
            <Array as="points">
              <mxPoint x="151.91" y="1412" />
              <mxPoint x="151.91" y="1775" />
              <mxPoint x="572.91" y="1775" />
            </Array>
            <mxPoint x="521.9100000000001" y="1412" as="sourcePoint" />
          </mxGeometry>
        </mxCell>
        <mxCell id="i9_PDDq2ceKXdRkYbvvK-34" style="edgeStyle=orthogonalEdgeStyle;rounded=0;orthogonalLoop=1;jettySize=auto;html=1;exitX=0;exitY=0.5;exitDx=0;exitDy=0;dashed=1;entryX=0.494;entryY=1.021;entryDx=0;entryDy=0;entryPerimeter=0;" edge="1" parent="1">
          <mxGeometry relative="1" as="geometry">
            <mxPoint x="522.9300000000001" y="2263.68" as="targetPoint" />
            <Array as="points">
              <mxPoint x="51" y="1413" />
              <mxPoint x="51" y="2312" />
              <mxPoint x="523" y="2312" />
              <mxPoint x="523" y="2265" />
            </Array>
            <mxPoint x="521.9099999999999" y="1413.0000000000002" as="sourcePoint" />
          </mxGeometry>
        </mxCell>
        <mxCell id="i9_PDDq2ceKXdRkYbvvK-35" style="edgeStyle=orthogonalEdgeStyle;rounded=0;orthogonalLoop=1;jettySize=auto;html=1;exitX=0;exitY=0.5;exitDx=0;exitDy=0;dashed=1;entryX=0.57;entryY=0.975;entryDx=0;entryDy=0;entryPerimeter=0;" edge="1" parent="1">
          <mxGeometry relative="1" as="geometry">
            <mxPoint x="797.0299999999997" y="2262" as="targetPoint" />
            <Array as="points">
              <mxPoint x="51.019999999999996" y="1415" />
              <mxPoint x="51.019999999999996" y="2311" />
              <mxPoint x="797.02" y="2311" />
            </Array>
            <mxPoint x="524.9300000000001" y="1415" as="sourcePoint" />
          </mxGeometry>
        </mxCell>
        <mxCell id="i9_PDDq2ceKXdRkYbvvK-36" style="edgeStyle=orthogonalEdgeStyle;rounded=0;orthogonalLoop=1;jettySize=auto;html=1;exitX=1;exitY=0.5;exitDx=0;exitDy=0;dashed=1;" edge="1" parent="1" source="i9_PDDq2ceKXdRkYbvvK-37" target="i9_PDDq2ceKXdRkYbvvK-64">
          <mxGeometry relative="1" as="geometry">
            <mxPoint x="879.91" y="2427" as="targetPoint" />
            <Array as="points">
              <mxPoint x="1168" y="1416" />
              <mxPoint x="1168" y="1908" />
              <mxPoint x="886" y="1908" />
            </Array>
          </mxGeometry>
        </mxCell>
        <mxCell id="i9_PDDq2ceKXdRkYbvvK-75" style="edgeStyle=orthogonalEdgeStyle;rounded=0;orthogonalLoop=1;jettySize=auto;html=1;exitX=0;exitY=0.5;exitDx=0;exitDy=0;entryX=0.5;entryY=1;entryDx=0;entryDy=0;dashed=1;" edge="1" parent="1">
          <mxGeometry relative="1" as="geometry">
            <mxPoint x="521.9100000000001" y="1412" as="sourcePoint" />
            <mxPoint x="307.9100000000001" y="1865" as="targetPoint" />
            <Array as="points">
              <mxPoint x="153" y="1412" />
              <mxPoint x="153" y="1902" />
              <mxPoint x="308" y="1902" />
            </Array>
          </mxGeometry>
        </mxCell>
        <mxCell id="i9_PDDq2ceKXdRkYbvvK-76" style="edgeStyle=orthogonalEdgeStyle;rounded=0;orthogonalLoop=1;jettySize=auto;html=1;exitX=0;exitY=0.5;exitDx=0;exitDy=0;entryX=0.5;entryY=1;entryDx=0;entryDy=0;dashed=1;" edge="1" parent="1">
          <mxGeometry relative="1" as="geometry">
            <mxPoint x="521.9100000000001" y="1413" as="sourcePoint" />
            <mxPoint x="443.9100000000001" y="1866" as="targetPoint" />
            <Array as="points">
              <mxPoint x="153" y="1413" />
              <mxPoint x="153" y="1903" />
              <mxPoint x="444" y="1903" />
            </Array>
          </mxGeometry>
        </mxCell>
        <mxCell id="i9_PDDq2ceKXdRkYbvvK-77" style="edgeStyle=orthogonalEdgeStyle;rounded=0;orthogonalLoop=1;jettySize=auto;html=1;exitX=0;exitY=0.5;exitDx=0;exitDy=0;entryX=0.5;entryY=1;entryDx=0;entryDy=0;dashed=1;" edge="1" parent="1">
          <mxGeometry relative="1" as="geometry">
            <mxPoint x="521.9100000000001" y="1413" as="sourcePoint" />
            <mxPoint x="572.9100000000001" y="1866" as="targetPoint" />
            <Array as="points">
              <mxPoint x="153" y="1413" />
              <mxPoint x="153" y="1903" />
              <mxPoint x="573" y="1903" />
            </Array>
          </mxGeometry>
        </mxCell>
        <mxCell id="i9_PDDq2ceKXdRkYbvvK-37" value="redis-operator" style="rounded=1;whiteSpace=wrap;html=1;fillColor=#b1ddf0;strokeColor=#10739e;" vertex="1" parent="1">
          <mxGeometry x="521.91" y="1380" width="221.5" height="72" as="geometry" />
        </mxCell>
        <mxCell id="i9_PDDq2ceKXdRkYbvvK-38" value="2 拉起宕机的所有节点" style="text;html=1;strokeColor=none;fillColor=none;align=center;verticalAlign=middle;whiteSpace=wrap;rounded=0;" vertex="1" parent="1">
          <mxGeometry x="138.91" y="1474" width="167" height="40" as="geometry" />
        </mxCell>
        <mxCell id="i9_PDDq2ceKXdRkYbvvK-39" value="redis集群" style="text;html=1;strokeColor=none;fillColor=none;align=center;verticalAlign=middle;whiteSpace=wrap;rounded=0;" vertex="1" parent="1">
          <mxGeometry x="416.91" y="1634" width="60" height="30" as="geometry" />
        </mxCell>
        <mxCell id="i9_PDDq2ceKXdRkYbvvK-40" value="redis集群" style="text;html=1;strokeColor=none;fillColor=none;align=center;verticalAlign=middle;whiteSpace=wrap;rounded=0;" vertex="1" parent="1">
          <mxGeometry x="629.9100000000001" y="2033" width="60" height="30" as="geometry" />
        </mxCell>
        <mxCell id="i9_PDDq2ceKXdRkYbvvK-51" value="主从复制" style="text;html=1;strokeColor=none;fillColor=none;align=center;verticalAlign=middle;whiteSpace=wrap;rounded=0;" vertex="1" parent="1">
          <mxGeometry x="792.41" y="2156" width="75" height="16" as="geometry" />
        </mxCell>
        <mxCell id="i9_PDDq2ceKXdRkYbvvK-52" value="master0" style="ellipse;whiteSpace=wrap;html=1;aspect=fixed;fillColor=#008a00;fontColor=#ffffff;strokeColor=#005700;" vertex="1" parent="1">
          <mxGeometry x="704" y="1658" width="80" height="80" as="geometry" />
        </mxCell>
        <mxCell id="i9_PDDq2ceKXdRkYbvvK-53" value="slave0" style="ellipse;whiteSpace=wrap;html=1;aspect=fixed;fillColor=#d5e8d4;strokeColor=#82b366;" vertex="1" parent="1">
          <mxGeometry x="704" y="1781" width="80" height="80" as="geometry" />
        </mxCell>
        <mxCell id="i9_PDDq2ceKXdRkYbvvK-54" value="master1" style="ellipse;whiteSpace=wrap;html=1;aspect=fixed;fillColor=#008a00;fontColor=#ffffff;strokeColor=#005700;" vertex="1" parent="1">
          <mxGeometry x="840" y="1658" width="80" height="80" as="geometry" />
        </mxCell>
        <mxCell id="i9_PDDq2ceKXdRkYbvvK-55" style="edgeStyle=orthogonalEdgeStyle;rounded=0;orthogonalLoop=1;jettySize=auto;html=1;exitX=0.5;exitY=0;exitDx=0;exitDy=0;entryX=0.5;entryY=1;entryDx=0;entryDy=0;dashed=1;startArrow=classic;startFill=1;" edge="1" parent="1" source="i9_PDDq2ceKXdRkYbvvK-64" target="i9_PDDq2ceKXdRkYbvvK-54">
          <mxGeometry relative="1" as="geometry" />
        </mxCell>
        <mxCell id="i9_PDDq2ceKXdRkYbvvK-56" value="meet" style="edgeLabel;html=1;align=center;verticalAlign=middle;resizable=0;points=[];" vertex="1" connectable="0" parent="i9_PDDq2ceKXdRkYbvvK-55">
          <mxGeometry x="-0.3023" y="3" relative="1" as="geometry">
            <mxPoint as="offset" />
          </mxGeometry>
        </mxCell>
        <mxCell id="i9_PDDq2ceKXdRkYbvvK-57" value="meet" style="edgeStyle=orthogonalEdgeStyle;rounded=0;orthogonalLoop=1;jettySize=auto;html=1;exitX=1;exitY=0.5;exitDx=0;exitDy=0;entryX=0;entryY=0.5;entryDx=0;entryDy=0;dashed=1;startArrow=classic;startFill=1;" edge="1" parent="1" source="i9_PDDq2ceKXdRkYbvvK-64" target="i9_PDDq2ceKXdRkYbvvK-66">
          <mxGeometry relative="1" as="geometry" />
        </mxCell>
        <mxCell id="i9_PDDq2ceKXdRkYbvvK-58" style="edgeStyle=orthogonalEdgeStyle;rounded=0;orthogonalLoop=1;jettySize=auto;html=1;exitX=0;exitY=0.5;exitDx=0;exitDy=0;entryX=1;entryY=0.5;entryDx=0;entryDy=0;dashed=1;startArrow=classic;startFill=1;" edge="1" parent="1" source="i9_PDDq2ceKXdRkYbvvK-64" target="i9_PDDq2ceKXdRkYbvvK-53">
          <mxGeometry relative="1" as="geometry" />
        </mxCell>
        <mxCell id="i9_PDDq2ceKXdRkYbvvK-59" value="meet" style="edgeLabel;html=1;align=center;verticalAlign=middle;resizable=0;points=[];" vertex="1" connectable="0" parent="i9_PDDq2ceKXdRkYbvvK-58">
          <mxGeometry x="-0.006" relative="1" as="geometry">
            <mxPoint x="1" as="offset" />
          </mxGeometry>
        </mxCell>
        <mxCell id="i9_PDDq2ceKXdRkYbvvK-60" style="edgeStyle=orthogonalEdgeStyle;rounded=0;orthogonalLoop=1;jettySize=auto;html=1;exitX=1;exitY=0;exitDx=0;exitDy=0;entryX=0;entryY=0.5;entryDx=0;entryDy=0;dashed=1;startArrow=classic;startFill=1;" edge="1" parent="1" source="i9_PDDq2ceKXdRkYbvvK-64" target="i9_PDDq2ceKXdRkYbvvK-65">
          <mxGeometry relative="1" as="geometry" />
        </mxCell>
        <mxCell id="i9_PDDq2ceKXdRkYbvvK-61" value="meet" style="edgeLabel;html=1;align=center;verticalAlign=middle;resizable=0;points=[];" vertex="1" connectable="0" parent="i9_PDDq2ceKXdRkYbvvK-60">
          <mxGeometry x="0.0668" y="-3" relative="1" as="geometry">
            <mxPoint as="offset" />
          </mxGeometry>
        </mxCell>
        <mxCell id="i9_PDDq2ceKXdRkYbvvK-62" style="edgeStyle=orthogonalEdgeStyle;rounded=0;orthogonalLoop=1;jettySize=auto;html=1;exitX=0;exitY=0;exitDx=0;exitDy=0;entryX=1;entryY=0.5;entryDx=0;entryDy=0;dashed=1;startArrow=classic;startFill=1;" edge="1" parent="1" source="i9_PDDq2ceKXdRkYbvvK-64" target="i9_PDDq2ceKXdRkYbvvK-52">
          <mxGeometry relative="1" as="geometry" />
        </mxCell>
        <mxCell id="i9_PDDq2ceKXdRkYbvvK-63" value="meet" style="edgeLabel;html=1;align=center;verticalAlign=middle;resizable=0;points=[];" vertex="1" connectable="0" parent="i9_PDDq2ceKXdRkYbvvK-62">
          <mxGeometry x="0.0229" y="-2" relative="1" as="geometry">
            <mxPoint as="offset" />
          </mxGeometry>
        </mxCell>
        <mxCell id="i9_PDDq2ceKXdRkYbvvK-64" value="slave1" style="ellipse;whiteSpace=wrap;html=1;aspect=fixed;fillColor=#d5e8d4;strokeColor=#82b366;" vertex="1" parent="1">
          <mxGeometry x="840" y="1781" width="80" height="80" as="geometry" />
        </mxCell>
        <mxCell id="i9_PDDq2ceKXdRkYbvvK-65" value="master2" style="ellipse;whiteSpace=wrap;html=1;aspect=fixed;fillColor=#008a00;fontColor=#ffffff;strokeColor=#005700;" vertex="1" parent="1">
          <mxGeometry x="969" y="1658" width="80" height="80" as="geometry" />
        </mxCell>
        <mxCell id="i9_PDDq2ceKXdRkYbvvK-66" value="slave2" style="ellipse;whiteSpace=wrap;html=1;aspect=fixed;fillColor=#d5e8d4;strokeColor=#82b366;" vertex="1" parent="1">
          <mxGeometry x="969" y="1781" width="80" height="80" as="geometry" />
        </mxCell>
        <mxCell id="i9_PDDq2ceKXdRkYbvvK-67" value="redis集群" style="text;html=1;strokeColor=none;fillColor=none;align=center;verticalAlign=middle;whiteSpace=wrap;rounded=0;" vertex="1" parent="1">
          <mxGeometry x="850" y="1629" width="60" height="30" as="geometry" />
        </mxCell>
        <mxCell id="i9_PDDq2ceKXdRkYbvvK-68" style="edgeStyle=orthogonalEdgeStyle;rounded=0;orthogonalLoop=1;jettySize=auto;html=1;exitX=0.5;exitY=1;exitDx=0;exitDy=0;dashed=1;" edge="1" parent="1">
          <mxGeometry relative="1" as="geometry">
            <mxPoint x="1041.5" y="1953" as="sourcePoint" />
            <mxPoint x="1041.5" y="1953" as="targetPoint" />
          </mxGeometry>
        </mxCell>
        <mxCell id="i9_PDDq2ceKXdRkYbvvK-69" value="&lt;font style=&quot;font-size: 27px;&quot;&gt;hostpath模式&lt;/font&gt;" style="text;html=1;strokeColor=none;fillColor=none;align=center;verticalAlign=middle;whiteSpace=wrap;rounded=0;" vertex="1" parent="1">
          <mxGeometry x="51" y="213" width="164" height="30" as="geometry" />
        </mxCell>
        <mxCell id="i9_PDDq2ceKXdRkYbvvK-70" value="&lt;font style=&quot;font-size: 27px;&quot;&gt;持久化模式&lt;/font&gt;" style="text;html=1;strokeColor=none;fillColor=none;align=center;verticalAlign=middle;whiteSpace=wrap;rounded=0;" vertex="1" parent="1">
          <mxGeometry x="39" y="1350" width="164" height="30" as="geometry" />
        </mxCell>
        <mxCell id="i9_PDDq2ceKXdRkYbvvK-78" value="&lt;p style=&quot;line-height: 150%;&quot;&gt;3 节点间相互握手&lt;/p&gt;" style="text;html=1;strokeColor=none;fillColor=none;align=center;verticalAlign=middle;whiteSpace=wrap;rounded=0;" vertex="1" parent="1">
          <mxGeometry x="1002" y="1479" width="213" height="30" as="geometry" />
        </mxCell>
        <mxCell id="i9_PDDq2ceKXdRkYbvvK-79" value="redis.conf&lt;br&gt;nodes.conf" style="shape=cylinder3;whiteSpace=wrap;html=1;boundedLbl=1;backgroundOutline=1;size=15;" vertex="1" parent="1">
          <mxGeometry x="393" y="1929.5" width="61" height="85" as="geometry" />
        </mxCell>
        <mxCell id="i9_PDDq2ceKXdRkYbvvK-83" style="edgeStyle=orthogonalEdgeStyle;rounded=0;orthogonalLoop=1;jettySize=auto;html=1;exitX=0.5;exitY=0;exitDx=0;exitDy=0;entryX=0.452;entryY=0.992;entryDx=0;entryDy=0;entryPerimeter=0;" edge="1" parent="1" source="i9_PDDq2ceKXdRkYbvvK-80" target="i9_PDDq2ceKXdRkYbvvK-3">
          <mxGeometry relative="1" as="geometry" />
        </mxCell>
        <mxCell id="i9_PDDq2ceKXdRkYbvvK-80" value="PVC" style="text;html=1;strokeColor=none;fillColor=none;align=center;verticalAlign=middle;whiteSpace=wrap;rounded=0;" vertex="1" parent="1">
          <mxGeometry x="394" y="1929.5" width="60" height="30" as="geometry" />
        </mxCell>
        <mxCell id="i9_PDDq2ceKXdRkYbvvK-84" value="redis.conf&lt;br&gt;nodes.conf" style="shape=cylinder3;whiteSpace=wrap;html=1;boundedLbl=1;backgroundOutline=1;size=15;" vertex="1" parent="1">
          <mxGeometry x="842" y="1929.5" width="61" height="85" as="geometry" />
        </mxCell>
        <mxCell id="i9_PDDq2ceKXdRkYbvvK-86" style="edgeStyle=orthogonalEdgeStyle;rounded=0;orthogonalLoop=1;jettySize=auto;html=1;exitX=0.5;exitY=0;exitDx=0;exitDy=0;entryX=0.48;entryY=0.998;entryDx=0;entryDy=0;entryPerimeter=0;" edge="1" parent="1" source="i9_PDDq2ceKXdRkYbvvK-85" target="i9_PDDq2ceKXdRkYbvvK-1">
          <mxGeometry relative="1" as="geometry" />
        </mxCell>
        <mxCell id="i9_PDDq2ceKXdRkYbvvK-85" value="PVC" style="text;html=1;strokeColor=none;fillColor=none;align=center;verticalAlign=middle;whiteSpace=wrap;rounded=0;" vertex="1" parent="1">
          <mxGeometry x="843" y="1929.5" width="60" height="30" as="geometry" />
        </mxCell>
        <mxCell id="i9_PDDq2ceKXdRkYbvvK-87" value="redis.conf&lt;br&gt;nodes.conf" style="shape=cylinder3;whiteSpace=wrap;html=1;boundedLbl=1;backgroundOutline=1;size=15;" vertex="1" parent="1">
          <mxGeometry x="594" y="2338" width="61" height="85" as="geometry" />
        </mxCell>
        <mxCell id="i9_PDDq2ceKXdRkYbvvK-89" style="edgeStyle=orthogonalEdgeStyle;rounded=0;orthogonalLoop=1;jettySize=auto;html=1;exitX=0.5;exitY=0;exitDx=0;exitDy=0;entryX=0.415;entryY=0.997;entryDx=0;entryDy=0;entryPerimeter=0;" edge="1" parent="1">
          <mxGeometry relative="1" as="geometry">
            <mxPoint x="624" y="2338" as="sourcePoint" />
            <mxPoint x="622.9749999999999" y="2294.214" as="targetPoint" />
          </mxGeometry>
        </mxCell>
        <mxCell id="i9_PDDq2ceKXdRkYbvvK-88" value="PVC" style="text;html=1;strokeColor=none;fillColor=none;align=center;verticalAlign=middle;whiteSpace=wrap;rounded=0;" vertex="1" parent="1">
          <mxGeometry x="595" y="2338" width="60" height="30" as="geometry" />
        </mxCell>
      </root>
    </mxGraphModel>
  </diagram>
</mxfile>
